<?xml version="1.0" standalone="no"?><!DOCTYPE svg PUBLIC "-//W3C//DTD SVG 1.1//EN" "http://www.w3.org/Graphics/SVG/1.1/DTD/svg11.dtd"><svg t="1705850875753" class="icon" viewBox="0 0 1024 1024" version="1.1" xmlns="http://www.w3.org/2000/svg" p-id="5299" data-darkreader-inline-fill="" xmlns:xlink="http://www.w3.org/1999/xlink" width="48" height="48"><path d="M466.346667 722.346667l-199.68-182.613334a3.84 3.84 0 0 1 0-5.973333l51.2-55.466667a4.693333 4.693333 0 0 1 5.973333 0l139.946667 119.466667a3.84 3.84 0 0 0 5.973333 0l223.146667-241.066667a4.693333 4.693333 0 0 1 6.4 0l54.186666 54.186667a4.266667 4.266667 0 0 1 0 5.973333l-280.32 305.066667a4.266667 4.266667 0 0 1-6.4 0.853333zM806.4 213.333333H217.6a3.84 3.84 0 0 0-4.266667 4.266667v588.8a3.84 3.84 0 0 0 4.266667 4.266667h588.8a3.84 3.84 0 0 0 4.266667-4.266667V217.6a3.84 3.84 0 0 0-4.266667-4.266667zM853.333333 849.066667a4.693333 4.693333 0 0 1-4.693333 4.693333H174.506667a4.693333 4.693333 0 0 1-4.693334-4.693333V174.933333A4.693333 4.693333 0 0 1 174.933333 170.666667h674.133334a4.693333 4.693333 0 0 1 4.693333 4.693333z" p-id="5300" fill="#ffffff" data-darkreader-inline-fill="" style="--darkreader-inline-fill: #181a1b;"></path></svg>