<?xml version="1.0" standalone="no"?><!DOCTYPE svg PUBLIC "-//W3C//DTD SVG 1.1//EN" "http://www.w3.org/Graphics/SVG/1.1/DTD/svg11.dtd"><svg t="1709718837686" class="icon" viewBox="0 0 1024 1024" version="1.1" xmlns="http://www.w3.org/2000/svg" p-id="16309" data-darkreader-inline-fill="" xmlns:xlink="http://www.w3.org/1999/xlink" width="48" height="48"><path d="M427.84 911.648a79.616 79.616 0 0 1-79.68-79.712V191.328a79.68 79.68 0 0 1 122.24-67.36l506.784 320.448a79.296 79.296 0 0 1 37.056 67.328c0 27.488-13.888 52.672-37.12 67.328L470.368 899.328a79.424 79.424 0 0 1-42.528 12.32z m16.32-690.688v581.376l459.808-290.624L444.16 220.96zM65.728 911.648a48 48 0 0 1-48-48v-704a48 48 0 1 1 96 0v704a48 48 0 0 1-48 48z" p-id="16310" fill="#ffffff" data-darkreader-inline-fill="" style="--darkreader-inline-fill: #181a1b;"></path></svg>