<?xml version="1.0" standalone="no"?><!DOCTYPE svg PUBLIC "-//W3C//DTD SVG 1.1//EN" "http://www.w3.org/Graphics/SVG/1.1/DTD/svg11.dtd"><svg t="1707034577048" class="icon" viewBox="0 0 1131 1024" version="1.1" xmlns="http://www.w3.org/2000/svg" p-id="4232" data-darkreader-inline-fill="" xmlns:xlink="http://www.w3.org/1999/xlink" width="53.015625" height="48"><path d="M1050.870652 373.020423l-248.300037 93.793787L489.375418 299.126129c-37.137269-16.730784-38.404753-20.026241-64.514915-10.01312l-111.411809 42.080456c-34.602302 12.801584-18.125015 24.969427 34.855799 82.386434L504.965466 579.240005l-394.187399 148.802575c39.291992 6.083921 277.832405 24.208937 332.080703 3.80245l650.599331-245.76507c30.419606-12.294591 45.375913-46.643396 33.841812-77.316499-11.534101-30.673103-45.375913-46.516648-76.429261-35.743038zM306.097289 629.432355l-132.578784-68.824359c-39.291992-20.913479-54.501795-20.786731-113.186286 1.394232l-60.332219 22.941453 114.453769 116.988736 191.64352-72.500062z m0 0" p-id="4233" fill="#ffffff" data-darkreader-inline-fill="" style="--darkreader-inline-fill: #181a1b;"></path></svg>