<?xml version="1.0" standalone="no"?><!DOCTYPE svg PUBLIC "-//W3C//DTD SVG 1.1//EN" "http://www.w3.org/Graphics/SVG/1.1/DTD/svg11.dtd"><svg t="1705850859227" class="icon" viewBox="0 0 1024 1024" version="1.1" xmlns="http://www.w3.org/2000/svg" p-id="4903" data-darkreader-inline-fill="" xmlns:xlink="http://www.w3.org/1999/xlink" width="48" height="48"><path d="M806.4 213.333333H217.6a3.84 3.84 0 0 0-4.266667 4.266667v588.8a3.84 3.84 0 0 0 4.266667 4.266667h588.8a3.84 3.84 0 0 0 4.266667-4.266667V217.6a3.84 3.84 0 0 0-4.266667-4.266667zM853.333333 849.066667a4.693333 4.693333 0 0 1-4.693333 4.693333H174.933333a4.693333 4.693333 0 0 1-4.693333-4.693333V174.933333a4.693333 4.693333 0 0 1 5.12-4.266666H849.066667a4.693333 4.693333 0 0 1 4.693333 4.693333z" p-id="4904" fill="#ffffff" data-darkreader-inline-fill="" style="--darkreader-inline-fill: #181a1b;"></path></svg>