<?xml version="1.0" standalone="no"?><!DOCTYPE svg PUBLIC "-//W3C//DTD SVG 1.1//EN" "http://www.w3.org/Graphics/SVG/1.1/DTD/svg11.dtd"><svg t="1705546061875" class="icon" viewBox="0 0 1024 1024" version="1.1" xmlns="http://www.w3.org/2000/svg" p-id="5040" data-darkreader-inline-fill="" width="32" height="32" xmlns:xlink="http://www.w3.org/1999/xlink"><path d="M272.04 802.8m-59.84 0a59.84 59.84 0 1 0 119.68 0 59.84 59.84 0 1 0-119.68 0Z" fill="#ffffff" p-id="5041" data-darkreader-inline-fill="" style="--darkreader-inline-fill: #e8e6e3;"></path><path d="M881.2 537.68c2.48 8.72-2.64 17.8-11.56 20.28-67.92 18.8-64.96 78.8-64.12 87.36 15.32 60.68 5.92 109.8-28.2 146.08-51.28 54.56-150.52 68.92-240.84 68.92-81.6 0-155.8-11.72-181.36-16.16-15.32 30.48-46.8 51.44-83.08 51.44-51.12 0-92.8-41.72-92.8-92.8 0-45.68 32.96-83.6 76.32-91.32V153.76c0-6.44 3.8-12.2 9.56-15 5.76-2.64 12.52-1.8 17.48 2.32L511.76 332a16.704 16.704 0 0 1 4.96 18.28c-2.48 6.6-8.56 10.88-15.48 10.88H288.52v350.32c24.08 4.28 44.84 17.96 58.52 36.92 0.48 0 1-0.32 1.32-0.32h0.32c39.4 0.48 149.52-2.8 189.6-25.24 108-60.32 91.48-99.56 70.4-149.2-10.04-23.72-20.44-48.12-17.16-75.68 21.6-180.36 271.52-179.2 274-179.36a16.64 16.64 0 0 1 16.32 16.64c-0.16 9.08-7.6 16.32-16.48 16.32h-0.64c-9.88 0-222.72 1.96-240.52 150.36-2.16 18.64 6.08 38.24 14.84 58.84 21.92 51.76 49.28 116.04-84.72 190.92-46.32 25.88-153.32 29-192.04 29.36 1.64 7.08 2.64 14.36 2.64 21.76 0 3.12-0.16 6.28-0.48 9.4 57.72 9.72 305.8 45 388.88-43.36 26.36-28.2 32.96-66.12 19.96-116.4a8.48 8.48 0 0 1-0.32-2.16c-4.12-33.32 8.92-102.2 88.04-124.12 8.8-2.32 17.72 2.8 20.2 11.52zM288.52 328.16h167L288.52 189.04v139.12zM331.88 802.8c0-32.96-26.88-59.84-59.84-59.84s-59.84 26.88-59.84 59.84 26.88 59.84 59.84 59.84 59.84-26.88 59.84-59.84z" fill="#ffffff" p-id="5042" data-darkreader-inline-fill="" style="--darkreader-inline-fill: #181a1b;"></path><path d="M455.52 328.16H288.52V189.04z" fill="#ffffff" p-id="5043" data-darkreader-inline-fill="" style="--darkreader-inline-fill: #181a1b;"></path></svg>